<?xml version="1.0" encoding="utf-8"?>
<!-- Svg Vector Icons : http://www.onlinewebfonts.com/icon -->
<!DOCTYPE svg PUBLIC "-//W3C//DTD SVG 1.1//EN" "http://www.w3.org/Graphics/SVG/1.1/DTD/svg11.dtd">
<svg version="1.1" xmlns="http://www.w3.org/2000/svg" xmlns:xlink="http://www.w3.org/1999/xlink" x="0px" y="0px" viewBox="0 0 1000 1000" enable-background="new 0 0 1000 1000" xml:space="preserve">
<metadata> Svg Vector Icons : http://www.onlinewebfonts.com/icon </metadata>
<g><g><g id="Wine_Glass"><g><path d="M693.4,259c0,108.9-84.2,187.9-188.2,187.9c-103.8,0-188.1-79.7-188.1-187.9c0,0,71,45.6,188.9,0C629.8,211.2,693.4,259,693.4,259z"/><path d="M505.1,467.4c-117,0-208.6-91.5-208.6-208.4c0-7.5,4.1-14.4,10.7-18c6.5-3.6,14.6-3.3,20.9,0.7c0.1,0.1,28,17,76.4,17l0,0c30,0,61.6-6.3,94-18.9c38.9-15,76.3-22.6,111-22.6c60.6,0,92.6,22.8,96.1,25.4c5.1,3.9,8.2,9.9,8.2,16.4C713.8,375.9,622.2,467.4,505.1,467.4z M340.4,290.8C354.8,369,422,426.5,505.1,426.5c91.7,0,161.8-66.1,167.4-155.7c-10.9-5.1-32-12.5-63-12.5c-29.7,0-62.1,6.7-96.3,19.9c-37.1,14.3-73.7,21.6-108.7,21.6l0,0C378.2,299.7,356.6,295.6,340.4,290.8z"/></g><g><path d="M499.7,140.1c-55.6,0-237.1-4.7-237.1-65.1c0-60.4,181.5-65.1,237.1-65.1c55.6,0,237.1,4.7,237.1,65.1C736.8,135.4,555.3,140.1,499.7,140.1z M311,75.1c23.5,10.4,88.3,24.1,188.7,24.1c100.4,0,165.2-13.8,188.7-24.1c-23.5-10.4-88.3-24.1-188.7-24.1C399.3,50.9,334.5,64.7,311,75.1z"/><path d="M449.7,904.8c-8,0-15.7-4.8-18.9-12.7c-3.2-7.9-1.2-16.6,4.4-22.3c13.3-36.4,14.5-308.8,8.1-341.8c-3.4-10.8,2.8-21.7,13.6-25.1c10.8-3.3,22.4,3.1,25.8,14c5,16.1,5.5,131.9,4.7,190.3c-2.7,184.8-15.8,190.3-29.8,196C454.9,904.2,452.3,904.8,449.7,904.8z"/><path d="M551.2,904.8c-2.6,0-5.3-0.5-7.8-1.6c-14-5.8-27.2-11.2-29.8-196c-0.8-58.4-0.3-174.2,4.7-190.3c3.4-10.8,14.9-16.8,25.7-13.4c10.6,3.3,16.5,14.3,13.7,24.9c-6.4,34.1-5.2,305.2,8.1,341.5c5.6,5.7,7.7,14.4,4.4,22.3C566.9,900,559.2,904.7,551.2,904.8z"/><path d="M543.6,542.2c-9.9,0-18.6-7.2-20.2-17.3c-1.7-11.2,5.9-21.7,17.1-23.4C663.8,482.1,750,380.3,750,253.9c0-23.1-9.1-72-52.4-173.8c-4.4-10.4,0.4-22.4,10.8-26.9c10.4-4.4,22.4,0.4,26.9,10.8c37.5,88,55.7,150.1,55.7,189.8c0,147-100.3,265.5-244.1,288C545.7,542.1,544.7,542.2,543.6,542.2z"/><path d="M456.4,542.2c-1.1,0-2.1-0.1-3.2-0.2c-143.8-22.6-244.1-141.1-244.1-288.1c0-39.7,18.2-101.8,55.7-189.8c4.4-10.4,16.5-15.3,26.9-10.8c10.4,4.4,15.2,16.5,10.8,26.9C259.1,181.9,250,230.8,250,253.9c0,126.4,86.2,228.2,209.5,247.6c11.2,1.7,18.8,12.2,17.1,23.4C475,535,466.3,542.2,456.4,542.2z"/><path d="M500.3,990c-183.4,0-192.7-47.8-192.7-57.4c0-38.6,81.4-63.3,136.4-67.8c11.1-0.9,21.1,7.5,22.1,18.7c0.9,11.3-7.5,21.2-18.8,22.1c-41.2,3.4-74.7,16-90.7,25.2c22,8.3,73.9,18.2,143.6,18.2c69.7,0,121.6-9.8,143.6-18.2c-15.9-9.1-48.9-21.7-89.3-25.1c-11.3-1-19.6-10.9-18.7-22.1c0.9-11.3,11-19.6,22.1-18.7c54.5,4.6,135,29.3,135,67.6C693.1,942.2,683.7,990,500.3,990z"/></g></g><g></g><g></g><g></g><g></g><g></g><g></g><g></g><g></g><g></g><g></g><g></g><g></g><g></g><g></g><g></g></g><g></g><g></g><g></g><g></g><g></g><g></g><g></g><g></g><g></g><g></g><g></g><g></g><g></g><g></g><g></g></g>
</svg>